<svg width="12" height="12" viewBox="0 0 12 12" fill="none" xmlns="http://www.w3.org/2000/svg">
    <path fill-rule="evenodd" clip-rule="evenodd" d="M11.7101 5.99969C11.7101 6.15719 11.6345 6.29759 11.5168 6.38799L6.34015 11.4392C6.14595 11.6287 5.83611 11.6287 5.64195 11.4392C5.44093 11.243 5.44093 10.9198 5.64195 10.7237L8.57035 7.86629C9.01055 7.43679 9.23065 7.22199 9.24675 7.03719C9.26075 6.87689 9.19675 6.71959 9.07475 6.61469C8.93415 6.49369 8.62665 6.49369 8.01155 6.49369L0.787317 6.49409C0.514577 6.49409 0.293477 6.27299 0.293457 6.00029C0.293447 5.72753 0.514527 5.50642 0.787267 5.50641L8.01255 5.50605C8.62755 5.50602 8.93505 5.506 9.07565 5.38501C9.19765 5.28005 9.26165 5.1228 9.24765 4.9625C9.23145 4.7777 9.01145 4.56296 8.57125 4.13347L5.64204 1.27527C5.44102 1.07912 5.44102 0.755909 5.64204 0.559759C5.8362 0.370299 6.14605 0.370299 6.34025 0.559759L11.5196 5.61368C11.6357 5.70416 11.7101 5.84345 11.7101 5.99969Z" fill="black"/>
</svg>
