<svg width="168" height="28" viewBox="0 0 168 28" fill="none" xmlns="http://www.w3.org/2000/svg">
    <path fill-rule="evenodd" clip-rule="evenodd" d="M32.2082 1.57785C32.8639 1.08961 32.537 0 31.7348 0H12.2555C12.0437 0 11.8367 0.0692431 11.6635 0.198237L0.348446 8.6237C-0.116149 8.96957 -0.116149 9.69709 0.348446 10.043L9.38041 16.7683C9.55363 16.8973 9.76034 16.9665 9.9722 16.9665H17.2724C17.6128 16.9665 17.8888 16.675 17.8888 16.3154V15.2374C17.8888 14.7168 18.4385 14.4067 18.848 14.6962L23.9041 18.2703C24.269 18.5282 24.269 19.0948 23.9041 19.3526L18.848 22.9268C18.4385 23.2163 17.8888 22.9062 17.8888 22.3855V21.0906C17.8888 20.7309 17.6128 20.4394 17.2724 20.4394H9.87479C9.66294 20.4394 9.45602 20.5086 9.2828 20.6376L1.51435 26.4222C0.858657 26.9104 1.18578 28 1.98799 28H21.4673C21.6791 28 21.8858 27.9308 22.0591 27.8018L33.3743 19.3763C33.8387 19.0304 33.8387 18.3029 33.3743 17.957L24.5612 11.3947C24.388 11.2657 24.1813 11.1964 23.9692 11.1964H16.2449C15.9045 11.1964 15.6285 11.488 15.6285 11.8476V12.9256C15.6285 13.4461 15.0788 13.7562 14.6691 13.4667L9.61322 9.89264C9.24828 9.63478 9.24828 9.0682 9.61322 8.81032L14.6691 5.23624C15.0788 4.94671 15.6285 5.25681 15.6285 5.77742V7.07241C15.6285 7.43205 15.9045 7.72357 16.2449 7.72357H23.6291C23.841 7.72357 24.0477 7.65433 24.2209 7.52534L32.2082 1.57785Z" fill="white"/>
    <path d="M60.7768 6.57009L58.4841 10.5425C56.5682 8.94864 54.2326 8.15171 51.4771 8.15171C49.0015 8.15171 47.7637 8.70343 47.7637 9.80688C47.7637 10.1992 47.9036 10.4689 48.1835 10.6161C48.4849 10.7387 48.9585 10.849 49.6043 10.9471L54.803 11.6092C59.0438 12.1977 61.1642 14.2942 61.1642 17.8988C61.1642 20.1302 60.2924 21.8222 58.5487 22.9747C56.8266 24.1027 54.5555 24.6666 51.7354 24.6666C49.8411 24.6666 48.1512 24.4092 46.6658 23.8942C45.202 23.3548 43.7489 22.4598 42.3066 21.2092L44.5347 17.0161C46.9672 18.9778 49.5074 19.9586 52.1552 19.9586C53.4468 19.9586 54.5017 19.7992 55.3197 19.4804C56.1377 19.1371 56.5467 18.6345 56.5467 17.9724C56.5467 17.5801 56.4606 17.2981 56.2884 17.1264C56.1377 16.9548 55.7933 16.8444 55.2551 16.7954L49.1199 15.9862C47.1394 15.7165 45.6326 15.1034 44.5993 14.1471C43.5875 13.1663 43.0816 11.7318 43.0816 9.84366C43.0816 7.71033 43.8673 6.09193 45.4388 4.98848C47.0103 3.88503 49.023 3.33331 51.4771 3.33331C55.2228 3.33331 58.3227 4.41224 60.7768 6.57009ZM63.9463 3.81147H68.6929V24.1517H63.9463V3.81147ZM71.7028 3.81147H77.7733L83.3272 17.3839H83.4564L89.4624 3.81147H95.1778V24.1517H90.4311V11.3517L85.2324 24.1517H81.4221L76.3202 11.3517V24.1517H71.7028V3.81147ZM98.2232 3.81147H109.815C111.451 3.81147 112.786 4.32642 113.819 5.3563C114.874 6.38619 115.402 7.74711 115.402 9.43906C115.402 10.9103 114.982 11.977 114.142 12.6391C115.778 13.718 116.596 15.4222 116.596 17.7517C116.596 19.5417 116.026 21.062 114.885 22.3126C113.766 23.5387 112.388 24.1517 110.752 24.1517H98.2232V3.81147ZM102.97 8.66665V11.3885H109.783C110.02 11.3885 110.235 11.2536 110.429 10.9839C110.644 10.6896 110.752 10.3709 110.752 10.0276C110.752 9.70879 110.655 9.40228 110.461 9.10802C110.289 8.81377 110.009 8.66665 109.622 8.66665H102.97ZM102.97 16.0965V19.2598H110.623C111.01 19.2598 111.322 19.1249 111.559 18.8552C111.817 18.5609 111.947 18.1808 111.947 17.7149C111.947 17.249 111.807 16.8689 111.527 16.5747C111.247 16.2559 110.903 16.0965 110.494 16.0965H102.97ZM119.162 3.81147H123.908V24.1517H119.162V3.81147ZM133.053 9.62297C132.063 10.7264 131.568 12.1854 131.568 14C131.568 15.8145 132.063 17.2858 133.053 18.4138C134.065 19.5172 135.335 20.0689 136.864 20.0689C138.371 20.0689 139.619 19.5172 140.609 18.4138C141.621 17.2858 142.127 15.8145 142.127 14C142.127 12.1854 141.621 10.7264 140.609 9.62297C139.619 8.495 138.371 7.93102 136.864 7.93102C135.335 7.93102 134.065 8.495 133.053 9.62297ZM143.935 6.3494C145.916 8.36013 146.906 10.9103 146.906 14C146.906 17.0896 145.916 19.6398 143.935 21.6506C141.955 23.6613 139.598 24.6666 136.864 24.6666C134.13 24.6666 131.773 23.6613 129.792 21.6506C127.812 19.6398 126.821 17.0896 126.821 14C126.821 10.9103 127.812 8.36013 129.792 6.3494C131.773 4.33867 134.13 3.33331 136.864 3.33331C139.598 3.33331 141.955 4.33867 143.935 6.3494ZM167.613 6.57009L165.32 10.5425C163.404 8.94864 161.068 8.15171 158.313 8.15171C155.837 8.15171 154.6 8.70343 154.6 9.80688C154.6 10.1992 154.739 10.4689 155.019 10.6161C155.321 10.7387 155.794 10.849 156.44 10.9471L161.639 11.6092C165.88 12.1977 168 14.2942 168 17.8988C168 20.1302 167.128 21.8222 165.385 22.9747C163.662 24.1027 161.391 24.6666 158.571 24.6666C156.677 24.6666 154.987 24.4092 153.502 23.8942C152.038 23.3548 150.585 22.4598 149.142 21.2092L151.37 17.0161C153.803 18.9778 156.343 19.9586 158.991 19.9586C160.283 19.9586 161.337 19.7992 162.156 19.4804C162.974 19.1371 163.383 18.6345 163.383 17.9724C163.383 17.5801 163.296 17.2981 163.124 17.1264C162.974 16.9548 162.629 16.8444 162.091 16.7954L155.956 15.9862C153.975 15.7165 152.468 15.1034 151.435 14.1471C150.423 13.1663 149.917 11.7318 149.917 9.84366C149.917 7.71033 150.703 6.09193 152.275 4.98848C153.846 3.88503 155.859 3.33331 158.313 3.33331C162.059 3.33331 165.159 4.41224 167.613 6.57009Z" fill="white"/>
</svg>
